<?xml version="1.0" encoding="utf-8"?>
<!-- Generator: Adobe Illustrator 20.1.0, SVG Export Plug-In . SVG Version: 6.00 Build 0)  -->
<!DOCTYPE svg PUBLIC "-//W3C//DTD SVG 1.1//EN" "http://www.w3.org/Graphics/SVG/1.1/DTD/svg11.dtd">
<svg version="1.1" id="Layer_1" xmlns="http://www.w3.org/2000/svg" xmlns:xlink="http://www.w3.org/1999/xlink" x="0px" y="0px"
	 width="288px" height="288px" viewBox="0 0 288 288" style="enable-background:new 0 0 288 288;" xml:space="preserve">
<style type="text/css">
	.st0{fill:none;stroke:#000000;stroke-width:6;stroke-linecap:round;stroke-linejoin:round;stroke-miterlimit:10;}
</style>
<polyline class="st0" points="87.9,132.5 87.9,9.2 142.1,132.2 "/>
<polyline class="st0" points="98.4,8.9 152.7,132.8 206.6,8.9 206.6,183.3 "/>
<path class="st0" d="M206.9,258.9c-15.5,17-28.3,23.4-55,23.4c-19.8,0-41.8-8-53.9-21.2c-10.2-11-15.4-27.6-15.4-44.9
	c0-37.8,29.6-68.4,66-68.4c25,0,46.7,14.4,57.9,35.5"/>
<path class="st0" d="M115.3,261.8c4.2,4,21,10.1,40.8,10.1c26.7,0,36.9-11,49.8-28v-28.6h-54.6"/>
</svg>
